<?xml version="1.0" standalone="no"?><!DOCTYPE svg PUBLIC "-//W3C//DTD SVG 1.1//EN" "http://www.w3.org/Graphics/SVG/1.1/DTD/svg11.dtd"><svg t="1524481916466" class="icon" style="" viewBox="0 0 1024 1024" version="1.1" xmlns="http://www.w3.org/2000/svg" p-id="2936" xmlns:xlink="http://www.w3.org/1999/xlink" width="48" height="48"><defs><style type="text/css"></style></defs><path d="M835.858 583.582h-102.926l-102.923-177.029c24.7-12.349 41.17-41.166 41.17-69.985v-164.678c0-45.291-37.056-82.341-82.34-82.341h-164.677c-45.284 0-82.336 37.052-82.336 82.341v164.677c0 28.819 16.467 53.518 41.166 69.985l-102.923 177.030h-102.922c-45.291 0-82.341 37.052-82.341 82.34v164.677c0 45.284 37.052 82.336 82.341 82.336h164.677c45.283 0 82.336-37.052 82.336-82.336v-53.522h164.677v53.522c0 45.284 37.052 82.336 82.34 82.336h164.677c45.284 0 82.336-37.052 82.336-82.336v-164.677c0-45.289-37.052-82.34-82.336-82.34v0zM424.162 715.326v-49.405c0-41.17-32.938-78.222-74.103-82.34l94.688-164.677h119.393l94.688 164.677c-41.17 4.117-74.102 37.052-74.102 82.34v49.405h-160.563zM424.162 715.326z" p-id="2937" fill="#ffffff"></path></svg>