<?xml version="1.0" standalone="no"?><!DOCTYPE svg PUBLIC "-//W3C//DTD SVG 1.1//EN" "http://www.w3.org/Graphics/SVG/1.1/DTD/svg11.dtd"><svg t="1524735184811" class="icon" style="" viewBox="0 0 1024 1024" version="1.1" xmlns="http://www.w3.org/2000/svg" p-id="2120" xmlns:xlink="http://www.w3.org/1999/xlink" width="200" height="200"><defs><style type="text/css"></style></defs><path d="M164.096 0h695.808c57.088 0 77.76 5.952 98.56 17.088 20.928 11.136 37.312 27.52 48.448 48.384 11.136 20.864 17.088 41.6 17.088 98.56v695.872c0 57.088-5.952 77.76-17.088 98.56-11.136 20.928-27.52 37.312-48.384 48.448-20.864 11.136-41.6 17.088-98.56 17.088H164.032c-57.088 0-77.76-5.952-98.56-17.088a116.288 116.288 0 0 1-48.448-48.384C5.952 937.6 0 916.928 0 859.968V164.032c0-57.088 5.952-77.76 17.088-98.56 11.136-20.928 27.52-37.312 48.384-48.448C86.4 5.952 107.072 0 164.032 0zM704 736a32 32 0 0 1 32-32h77.952c28.544 0 38.848-2.944 49.28-8.576a58.176 58.176 0 0 0 24.192-24.192c5.632-10.432 8.576-20.736 8.576-49.28V210.048c0-28.544-2.944-38.848-8.576-49.28a58.176 58.176 0 0 0-24.192-24.192c-10.432-5.632-20.736-8.576-49.28-8.576H210.048c-28.544 0-38.848 2.944-49.28 8.576a58.176 58.176 0 0 0-24.192 24.192c-5.632 10.432-8.576 20.736-8.576 49.28v411.904c0 28.544 2.944 38.848 8.576 49.28 5.568 10.432 13.76 18.624 24.192 24.192 10.432 5.632 20.736 8.576 49.28 8.576H288a32 32 0 0 1 32 32v77.952c0 28.544 2.944 38.848 8.576 49.28 5.568 10.432 13.76 18.624 24.192 24.192 10.432 5.632 20.736 8.576 49.28 8.576h219.904c28.544 0 38.848-2.944 49.28-8.576a58.176 58.176 0 0 0 24.192-24.192c5.632-10.432 8.576-20.736 8.576-49.28V736zM288 256h448a32 32 0 1 1 0 64h-448a32 32 0 0 1 0-64z m0 192h448a32 32 0 1 1 0 64h-448a32 32 0 0 1 0-64z" p-id="2121" fill="#ffffff"></path></svg>