<?xml version="1.0" standalone="no"?><!DOCTYPE svg PUBLIC "-//W3C//DTD SVG 1.1//EN" "http://www.w3.org/Graphics/SVG/1.1/DTD/svg11.dtd"><svg t="1524218993375" class="icon" style="" viewBox="0 0 1024 1024" version="1.1" xmlns="http://www.w3.org/2000/svg" p-id="1412" xmlns:xlink="http://www.w3.org/1999/xlink" width="200" height="200"><defs><style type="text/css"></style></defs><path d="M868.352 553.408c0 0.64-0.128 1.216-0.128 1.856 7.36-0.896 14.784-1.472 22.336-1.472 23.424 0 45.76 4.416 66.24 12.288 0.128-4.288 0.704-8.448 0.704-12.736 0-174.912-109.952-324.928-267.2-390.72 0.064 2.24 0.32 4.416 0.32 6.592 0 28.48-7.424 55.296-20.352 78.912C787.52 303.872 868.352 419.456 868.352 553.408L868.352 553.408zM133.696 553.792c7.616 0 15.04 0.576 22.4 1.472 0-0.576-0.064-1.216-0.064-1.856 0-133.952 80.832-249.536 198.08-305.28C341.12 224.512 333.696 197.696 333.696 169.216c0-2.24 0.256-4.288 0.32-6.464-157.056 65.856-266.88 215.808-266.88 390.592 0 4.288 0.576 8.384 0.704 12.608C88.256 558.144 110.4 553.792 133.696 553.792L133.696 553.792zM512.32 296.704c73.792 0 133.696-57.28 133.696-127.808S586.176 41.088 512.32 41.088c-73.856 0-133.696 57.28-133.696 127.808S438.464 296.704 512.32 296.704L512.32 296.704zM890.56 595.904c-73.664 0-133.44 57.152-133.44 127.552 0 70.464 59.712 127.552 133.44 127.552 73.664 0 133.44-57.024 133.44-127.552C1024 653.056 964.288 595.904 890.56 595.904L890.56 595.904zM266.816 723.456c0-70.4-59.712-127.552-133.44-127.552C59.712 595.904 0 653.056 0 723.456c0 70.464 59.712 127.552 133.44 127.552C207.104 850.944 266.816 793.92 266.816 723.456L266.816 723.456zM740.352 815.168c-61.824 49.472-141.376 79.296-228.16 79.296-86.848 0-166.4-29.76-228.16-79.296-16.128 24.32-38.336 44.608-64.896 58.432 78.4 65.856 180.8 106.112 293.248 106.112 112.384 0 214.72-40.192 293.056-106.048C778.816 859.776 756.48 839.552 740.352 815.168L740.352 815.168z" p-id="1413" fill="#1296db"></path></svg>