<?xml version="1.0" standalone="no"?><!DOCTYPE svg PUBLIC "-//W3C//DTD SVG 1.1//EN" "http://www.w3.org/Graphics/SVG/1.1/DTD/svg11.dtd"><svg t="1524482444336" class="icon" style="" viewBox="0 0 1024 1024" version="1.1" xmlns="http://www.w3.org/2000/svg" p-id="3703" xmlns:xlink="http://www.w3.org/1999/xlink" width="48" height="48"><defs><style type="text/css"></style></defs><path d="M850.912361 1018.340093 173.089685 1018.340093c-29.544897 0-53.502541-23.435759-53.502541-52.365648L119.587144 58.618049c0-28.90226 23.957645-52.340065 53.502541-52.365648l285.408285 0L458.49797 198.009749l0 104.927771c0 57.950853 47.913243 104.926748 107.003036 104.926748l107.028619 0 231.883231 0 0 418.522002 0 139.588175C904.412856 994.903312 880.457258 1018.340093 850.912361 1018.340093zM565.50203 355.400383c-29.543873 0-53.501518-23.486924-53.501518-52.462862L512.000512 198.009749 512.000512 5.658883l392.413368 349.741499L672.530648 355.400383 565.50203 355.400383z" p-id="3704"></path></svg>